<svg width="581" height="482" viewBox="0 0 581 482" fill="none" xmlns="http://www.w3.org/2000/svg">
<path d="M432.12 322.147L503.218 43.7587H581V0H469.231L452.47 65.6252L0 65.3015L48.1044 322.145H432.12V322.147ZM441.298 109.376L398.133 278.388H84.428L52.7215 109.098L441.298 109.376Z" fill="#3B74F2"/>
<path d="M372.218 481.617C410.804 481.617 442.195 450.224 442.195 411.639C442.195 373.053 410.804 341.662 372.218 341.662H108.571C69.9857 341.662 38.5933 373.053 38.5933 411.639C38.5933 450.224 69.985 481.617 108.571 481.617C147.157 481.617 178.548 450.224 178.548 411.639C178.548 402.372 176.733 393.523 173.447 385.421H307.342C304.056 393.523 302.24 402.372 302.24 411.639C302.241 450.224 333.633 481.617 372.218 481.617ZM134.79 411.639C134.79 426.097 123.028 437.858 108.571 437.858C94.1141 437.858 82.352 426.097 82.352 411.639C82.352 397.182 94.1134 385.421 108.571 385.421C123.028 385.421 134.79 397.182 134.79 411.639ZM398.437 411.639C398.437 426.097 386.676 437.858 372.219 437.858C357.762 437.858 346 426.097 346 411.639C346 397.182 357.762 385.421 372.219 385.421C386.676 385.421 398.437 397.182 398.437 411.639Z" fill="#3B74F2"/>
</svg>
