<svg width="1653" height="345" viewBox="0 0 1653 345" fill="none" xmlns="http://www.w3.org/2000/svg">
<path d="M225.392 214.031L262.477 68.8244H303.047V46H244.749L236.007 80.2298L0 80.061L25.091 214.03H225.392V214.031ZM230.179 103.05L207.665 191.206H44.0373L27.4993 102.905L230.179 103.05Z" fill="#3B74F2"/>
<path d="M194.147 297.209C214.274 297.209 230.647 280.835 230.647 260.709C230.647 240.583 214.274 224.21 194.147 224.21H56.6303C36.5042 224.21 20.1301 240.583 20.1301 260.709C20.1301 280.835 36.5039 297.209 56.6303 297.209C76.7567 297.209 93.1302 280.835 93.1302 260.709C93.1302 255.876 92.1833 251.26 90.4694 247.034H160.308C158.594 251.26 157.647 255.876 157.647 260.709C157.648 280.835 174.021 297.209 194.147 297.209ZM70.3058 260.709C70.3058 268.25 64.1711 274.385 56.6303 274.385C49.0895 274.385 42.9545 268.25 42.9545 260.709C42.9545 253.169 49.0892 247.034 56.6303 247.034C64.1711 247.034 70.3058 253.169 70.3058 260.709ZM207.823 260.709C207.823 268.25 201.689 274.385 194.148 274.385C186.607 274.385 180.472 268.25 180.472 260.709C180.472 253.169 186.607 247.034 194.148 247.034C201.689 247.034 207.823 253.169 207.823 260.709Z" fill="#3B74F2"/>
<path d="M311.05 172.5C311.05 156.707 314.577 142.6 321.63 130.18C328.837 117.607 338.573 107.87 350.84 100.97C363.26 93.9167 377.137 90.39 392.47 90.39C410.41 90.39 426.127 94.99 439.62 104.19C453.113 113.39 462.543 126.117 467.91 142.37H430.88C427.2 134.703 421.987 128.953 415.24 125.12C408.647 121.287 400.98 119.37 392.24 119.37C382.887 119.37 374.53 121.593 367.17 126.04C359.963 130.333 354.29 136.467 350.15 144.44C346.163 152.413 344.17 161.767 344.17 172.5C344.17 183.08 346.163 192.433 350.15 200.56C354.29 208.533 359.963 214.743 367.17 219.19C374.53 223.483 382.887 225.63 392.24 225.63C400.98 225.63 408.647 223.713 415.24 219.88C421.987 215.893 427.2 210.067 430.88 202.4H467.91C462.543 218.807 453.113 231.61 439.62 240.81C426.28 249.857 410.563 254.38 392.47 254.38C377.137 254.38 363.26 250.93 350.84 244.03C338.573 236.977 328.837 227.24 321.63 214.82C314.577 202.4 311.05 188.293 311.05 172.5ZM487.133 188.83C487.133 175.95 489.663 164.527 494.723 154.56C499.936 144.593 506.913 136.927 515.653 131.56C524.546 126.193 534.436 123.51 545.323 123.51C554.83 123.51 563.11 125.427 570.163 129.26C577.37 133.093 583.12 137.923 587.413 143.75V125.58H619.843V253H587.413V234.37C583.273 240.35 577.523 245.333 570.163 249.32C562.956 253.153 554.6 255.07 545.093 255.07C534.36 255.07 524.546 252.31 515.653 246.79C506.913 241.27 499.936 233.527 494.723 223.56C489.663 213.44 487.133 201.863 487.133 188.83ZM587.413 189.29C587.413 181.47 585.88 174.8 582.813 169.28C579.746 163.607 575.606 159.313 570.393 156.4C565.18 153.333 559.583 151.8 553.603 151.8C547.623 151.8 542.103 153.257 537.043 156.17C531.983 159.083 527.843 163.377 524.623 169.05C521.556 174.57 520.023 181.163 520.023 188.83C520.023 196.497 521.556 203.243 524.623 209.07C527.843 214.743 531.983 219.113 537.043 222.18C542.256 225.247 547.776 226.78 553.603 226.78C559.583 226.78 565.18 225.323 570.393 222.41C575.606 219.343 579.746 215.05 582.813 209.53C585.88 203.857 587.413 197.11 587.413 189.29ZM683.492 145.36C687.632 138.613 692.999 133.323 699.592 129.49C706.339 125.657 714.005 123.74 722.592 123.74V157.55H714.082C703.962 157.55 696.295 159.927 691.082 164.68C686.022 169.433 683.492 177.713 683.492 189.52V253H651.292V125.58H683.492V145.36ZM781.77 152.03V213.67C781.77 217.963 782.767 221.107 784.76 223.1C786.907 224.94 790.433 225.86 795.34 225.86H810.29V253H790.05C762.91 253 749.34 239.813 749.34 213.44V152.03H734.16V125.58H749.34V94.07H781.77V125.58H810.29V152.03H781.77ZM880.435 172.5C880.435 156.707 883.961 142.6 891.015 130.18C898.221 117.607 907.958 107.87 920.225 100.97C932.645 93.9167 946.521 90.39 961.855 90.39C979.795 90.39 995.511 94.99 1009 104.19C1022.5 113.39 1031.93 126.117 1037.29 142.37H1000.26C996.585 134.703 991.371 128.953 984.625 125.12C978.031 121.287 970.365 119.37 961.625 119.37C952.271 119.37 943.915 121.593 936.555 126.04C929.348 130.333 923.675 136.467 919.535 144.44C915.548 152.413 913.555 161.767 913.555 172.5C913.555 183.08 915.548 192.433 919.535 200.56C923.675 208.533 929.348 214.743 936.555 219.19C943.915 223.483 952.271 225.63 961.625 225.63C970.365 225.63 978.031 223.713 984.625 219.88C991.371 215.893 996.585 210.067 1000.26 202.4H1037.29C1031.93 218.807 1022.5 231.61 1009 240.81C995.665 249.857 979.948 254.38 961.855 254.38C946.521 254.38 932.645 250.93 920.225 244.03C907.958 236.977 898.221 227.24 891.015 214.82C883.961 202.4 880.435 188.293 880.435 172.5ZM1056.52 188.83C1056.52 175.95 1059.05 164.527 1064.11 154.56C1069.32 144.593 1076.3 136.927 1085.04 131.56C1093.93 126.193 1103.82 123.51 1114.71 123.51C1124.21 123.51 1132.49 125.427 1139.55 129.26C1146.75 133.093 1152.5 137.923 1156.8 143.75V125.58H1189.23V253H1156.8V234.37C1152.66 240.35 1146.91 245.333 1139.55 249.32C1132.34 253.153 1123.98 255.07 1114.48 255.07C1103.74 255.07 1093.93 252.31 1085.04 246.79C1076.3 241.27 1069.32 233.527 1064.11 223.56C1059.05 213.44 1056.52 201.863 1056.52 188.83ZM1156.8 189.29C1156.8 181.47 1155.26 174.8 1152.2 169.28C1149.13 163.607 1144.99 159.313 1139.78 156.4C1134.56 153.333 1128.97 151.8 1122.99 151.8C1117.01 151.8 1111.49 153.257 1106.43 156.17C1101.37 159.083 1097.23 163.377 1094.01 169.05C1090.94 174.57 1089.41 181.163 1089.41 188.83C1089.41 196.497 1090.94 203.243 1094.01 209.07C1097.23 214.743 1101.37 219.113 1106.43 222.18C1111.64 225.247 1117.16 226.78 1122.99 226.78C1128.97 226.78 1134.56 225.323 1139.78 222.41C1144.99 219.343 1149.13 215.05 1152.2 209.53C1155.26 203.857 1156.8 197.11 1156.8 189.29ZM1291.29 123.74C1306.47 123.74 1318.73 128.57 1328.09 138.23C1337.44 147.737 1342.12 161.077 1342.12 178.25V253H1309.92V182.62C1309.92 172.5 1307.39 164.757 1302.33 159.39C1297.27 153.87 1290.37 151.11 1281.63 151.11C1272.73 151.11 1265.68 153.87 1260.47 159.39C1255.41 164.757 1252.88 172.5 1252.88 182.62V253H1220.68V125.58H1252.88V141.45C1257.17 135.93 1262.61 131.637 1269.21 128.57C1275.95 125.35 1283.31 123.74 1291.29 123.74ZM1364.46 188.83C1364.46 175.95 1366.99 164.527 1372.05 154.56C1377.26 144.593 1384.31 136.927 1393.21 131.56C1402.1 126.193 1411.99 123.51 1422.88 123.51C1431.16 123.51 1439.05 125.35 1446.57 129.03C1454.08 132.557 1460.06 137.31 1464.51 143.29V82.8H1497.17V253H1464.51V234.14C1460.52 240.427 1454.92 245.487 1447.72 249.32C1440.51 253.153 1432.15 255.07 1422.65 255.07C1411.91 255.07 1402.1 252.31 1393.21 246.79C1384.31 241.27 1377.26 233.527 1372.05 223.56C1366.99 213.44 1364.46 201.863 1364.46 188.83ZM1464.74 189.29C1464.74 181.47 1463.2 174.8 1460.14 169.28C1457.07 163.607 1452.93 159.313 1447.72 156.4C1442.5 153.333 1436.91 151.8 1430.93 151.8C1424.95 151.8 1419.43 153.257 1414.37 156.17C1409.31 159.083 1405.17 163.377 1401.95 169.05C1398.88 174.57 1397.35 181.163 1397.35 188.83C1397.35 196.497 1398.88 203.243 1401.95 209.07C1405.17 214.743 1409.31 219.113 1414.37 222.18C1419.58 225.247 1425.1 226.78 1430.93 226.78C1436.91 226.78 1442.5 225.323 1447.72 222.41C1452.93 219.343 1457.07 215.05 1460.14 209.53C1463.2 203.857 1464.74 197.11 1464.74 189.29ZM1650.52 125.58L1571.63 313.26H1537.36L1564.96 249.78L1513.9 125.58H1550.01L1582.9 214.59L1616.25 125.58H1650.52Z" fill="#3B74F2"/>
</svg>
