<svg width="1973" height="736" viewBox="0 0 1973 736" fill="none" xmlns="http://www.w3.org/2000/svg">
<path d="M1089.12 576.147L1160.22 297.759H1238V254H1126.23L1109.47 319.625L657 319.302L705.104 576.145H1089.12V576.147ZM1098.3 363.376L1055.13 532.388H741.428L709.722 363.098L1098.3 363.376Z" fill="#3B74F2"/>
<path d="M1029.22 735.617C1067.8 735.617 1099.2 704.224 1099.2 665.639C1099.2 627.053 1067.8 595.662 1029.22 595.662H765.571C726.986 595.662 695.593 627.053 695.593 665.639C695.593 704.224 726.985 735.617 765.571 735.617C804.157 735.617 835.548 704.224 835.548 665.639C835.548 656.372 833.733 647.523 830.447 639.421H964.342C961.056 647.523 959.24 656.372 959.24 665.639C959.241 704.224 990.633 735.617 1029.22 735.617ZM791.79 665.639C791.79 680.097 780.028 691.858 765.571 691.858C751.114 691.858 739.352 680.097 739.352 665.639C739.352 651.182 751.113 639.421 765.571 639.421C780.028 639.421 791.79 651.182 791.79 665.639ZM1055.44 665.639C1055.44 680.097 1043.68 691.858 1029.22 691.858C1014.76 691.858 1003 680.097 1003 665.639C1003 651.182 1014.76 639.421 1029.22 639.421C1043.68 639.421 1055.44 651.182 1055.44 665.639Z" fill="#3B74F2"/>
<path d="M7.4 150.2C7.4 136.6 10.5333 124.4 16.8 113.6C23.2 102.8 31.8 94.4 42.6 88.4C53.5333 82.2667 65.4667 79.2 78.4 79.2C93.2 79.2 106.333 82.8667 117.8 90.2C129.4 97.4 137.8 107.667 143 121H115.6C112 113.667 107 108.2 100.6 104.6C94.2 101 86.8 99.2 78.4 99.2C69.2 99.2 61 101.267 53.8 105.4C46.6 109.533 40.9333 115.467 36.8 123.2C32.8 130.933 30.8 139.933 30.8 150.2C30.8 160.467 32.8 169.467 36.8 177.2C40.9333 184.933 46.6 190.933 53.8 195.2C61 199.333 69.2 201.4 78.4 201.4C86.8 201.4 94.2 199.6 100.6 196C107 192.4 112 186.933 115.6 179.6H143C137.8 192.933 129.4 203.2 117.8 210.4C106.333 217.6 93.2 221.2 78.4 221.2C65.3333 221.2 53.4 218.2 42.6 212.2C31.8 206.067 23.2 197.6 16.8 186.8C10.5333 176 7.4 163.8 7.4 150.2ZM233.088 221.4C220.154 221.4 208.221 218.4 197.288 212.4C186.488 206.267 177.888 197.8 171.488 187C165.221 176.067 162.088 163.8 162.088 150.2C162.088 136.6 165.221 124.4 171.488 113.6C177.888 102.8 186.488 94.4 197.288 88.4C208.221 82.2667 220.154 79.2 233.088 79.2C246.154 79.2 258.088 82.2667 268.888 88.4C279.821 94.4 288.421 102.8 294.688 113.6C300.954 124.4 304.088 136.6 304.088 150.2C304.088 163.8 300.954 176.067 294.688 187C288.421 197.8 279.821 206.267 268.888 212.4C258.088 218.4 246.154 221.4 233.088 221.4ZM233.088 201.6C242.288 201.6 250.488 199.533 257.688 195.4C264.888 191.133 270.488 185.133 274.488 177.4C278.621 169.533 280.688 160.467 280.688 150.2C280.688 139.933 278.621 130.933 274.488 123.2C270.488 115.467 264.888 109.533 257.688 105.4C250.488 101.267 242.288 99.2 233.088 99.2C223.888 99.2 215.688 101.267 208.488 105.4C201.288 109.533 195.621 115.467 191.488 123.2C187.488 130.933 185.488 139.933 185.488 150.2C185.488 160.467 187.488 169.533 191.488 177.4C195.621 185.133 201.288 191.133 208.488 195.4C215.688 199.533 223.888 201.6 233.088 201.6ZM371.923 81C386.723 81 399.657 83.8667 410.723 89.6C421.923 95.2 430.523 103.333 436.523 114C442.657 124.533 445.723 136.867 445.723 151C445.723 165.133 442.657 177.4 436.523 187.8C430.523 198.2 421.923 206.2 410.723 211.8C399.657 217.267 386.723 220 371.923 220H326.523V81H371.923ZM371.923 201.4C388.19 201.4 400.657 197 409.323 188.2C417.99 179.4 422.323 167 422.323 151C422.323 134.867 417.99 122.267 409.323 113.2C400.657 104.133 388.19 99.6 371.923 99.6H349.323V201.4H371.923ZM491.12 99.4V140.2H539.12V158.8H491.12V201.4H545.12V220H468.32V80.8H545.12V99.4H491.12ZM647.603 148.6C655.07 149.933 661.403 153.867 666.603 160.4C671.803 166.933 674.403 174.333 674.403 182.6C674.403 189.667 672.536 196.067 668.803 201.8C665.203 207.4 659.936 211.867 653.003 215.2C646.07 218.4 638.003 220 628.803 220H573.203V81H626.203C635.67 81 643.803 82.6 650.603 85.8C657.403 89 662.536 93.3333 666.003 98.8C669.47 104.133 671.203 110.133 671.203 116.8C671.203 124.8 669.07 131.467 664.803 136.8C660.536 142.133 654.803 146.067 647.603 148.6ZM596.003 139.4H624.203C631.67 139.4 637.47 137.733 641.603 134.4C645.87 130.933 648.003 126 648.003 119.6C648.003 113.333 645.87 108.467 641.603 105C637.47 101.4 631.67 99.6 624.203 99.6H596.003V139.4ZM626.803 201.4C634.536 201.4 640.603 199.533 645.003 195.8C649.403 192.067 651.603 186.867 651.603 180.2C651.603 173.4 649.27 168 644.603 164C639.936 160 633.736 158 626.003 158H596.003V201.4H626.803ZM802.18 81L756.18 169.6V220H733.38V169.6L687.18 81H712.58L744.78 149.2L776.98 81H802.18ZM956.827 138V157.2H874.627V138H956.827ZM1033.57 150.2C1033.57 136.6 1036.71 124.4 1042.97 113.6C1049.37 102.8 1057.97 94.4 1068.77 88.4C1079.71 82.2667 1091.64 79.2 1104.57 79.2C1119.37 79.2 1132.51 82.8667 1143.97 90.2C1155.57 97.4 1163.97 107.667 1169.17 121H1141.77C1138.17 113.667 1133.17 108.2 1126.77 104.6C1120.37 101 1112.97 99.2 1104.57 99.2C1095.37 99.2 1087.17 101.267 1079.97 105.4C1072.77 109.533 1067.11 115.467 1062.97 123.2C1058.97 130.933 1056.97 139.933 1056.97 150.2C1056.97 160.467 1058.97 169.467 1062.97 177.2C1067.11 184.933 1072.77 190.933 1079.97 195.2C1087.17 199.333 1095.37 201.4 1104.57 201.4C1112.97 201.4 1120.37 199.6 1126.77 196C1133.17 192.4 1138.17 186.933 1141.77 179.6H1169.17C1163.97 192.933 1155.57 203.2 1143.97 210.4C1132.51 217.6 1119.37 221.2 1104.57 221.2C1091.51 221.2 1079.57 218.2 1068.77 212.2C1057.97 206.067 1049.37 197.6 1042.97 186.8C1036.71 176 1033.57 163.8 1033.57 150.2ZM1188.26 164.4C1188.26 153.333 1190.53 143.533 1195.06 135C1199.73 126.467 1205.99 119.867 1213.86 115.2C1221.86 110.4 1230.66 108 1240.26 108C1248.93 108 1256.46 109.733 1262.86 113.2C1269.39 116.533 1274.59 120.733 1278.46 125.8V109.8H1301.46V220H1278.46V203.6C1274.59 208.8 1269.33 213.133 1262.66 216.6C1255.99 220.067 1248.39 221.8 1239.86 221.8C1230.39 221.8 1221.73 219.4 1213.86 214.6C1205.99 209.667 1199.73 202.867 1195.06 194.2C1190.53 185.4 1188.26 175.467 1188.26 164.4ZM1278.46 164.8C1278.46 157.2 1276.86 150.6 1273.66 145C1270.59 139.4 1266.53 135.133 1261.46 132.2C1256.39 129.267 1250.93 127.8 1245.06 127.8C1239.19 127.8 1233.73 129.267 1228.66 132.2C1223.59 135 1219.46 139.2 1216.26 144.8C1213.19 150.267 1211.66 156.8 1211.66 164.4C1211.66 172 1213.19 178.667 1216.26 184.4C1219.46 190.133 1223.59 194.533 1228.66 197.6C1233.86 200.533 1239.33 202 1245.06 202C1250.93 202 1256.39 200.533 1261.46 197.6C1266.53 194.667 1270.59 190.4 1273.66 184.8C1276.86 179.067 1278.46 172.4 1278.46 164.8ZM1354.21 125.8C1357.54 120.2 1361.94 115.867 1367.41 112.8C1373.01 109.6 1379.61 108 1387.21 108V131.6H1381.41C1372.47 131.6 1365.67 133.867 1361.01 138.4C1356.47 142.933 1354.21 150.8 1354.21 162V220H1331.41V109.8H1354.21V125.8ZM1434.76 128.4V189.4C1434.76 193.533 1435.7 196.533 1437.56 198.4C1439.56 200.133 1442.9 201 1447.56 201H1461.56V220H1443.56C1433.3 220 1425.43 217.6 1419.96 212.8C1414.5 208 1411.76 200.2 1411.76 189.4V128.4H1398.76V109.8H1411.76V82.4H1434.76V109.8H1461.56V128.4H1434.76ZM1561.13 128.4V189.4C1561.13 193.533 1562.06 196.533 1563.93 198.4C1565.93 200.133 1569.26 201 1573.93 201H1587.93V220H1569.93C1559.66 220 1551.8 217.6 1546.33 212.8C1540.86 208 1538.13 200.2 1538.13 189.4V128.4H1525.13V109.8H1538.13V82.4H1561.13V109.8H1587.93V128.4H1561.13ZM1709.95 162.2C1709.95 166.333 1709.68 170.067 1709.15 173.4H1624.95C1625.61 182.2 1628.88 189.267 1634.75 194.6C1640.61 199.933 1647.81 202.6 1656.35 202.6C1668.61 202.6 1677.28 197.467 1682.35 187.2H1706.95C1703.61 197.333 1697.55 205.667 1688.75 212.2C1680.08 218.6 1669.28 221.8 1656.35 221.8C1645.81 221.8 1636.35 219.467 1627.95 214.8C1619.68 210 1613.15 203.333 1608.35 194.8C1603.68 186.133 1601.35 176.133 1601.35 164.8C1601.35 153.467 1603.61 143.533 1608.15 135C1612.81 126.333 1619.28 119.667 1627.55 115C1635.95 110.333 1645.55 108 1656.35 108C1666.75 108 1676.01 110.267 1684.15 114.8C1692.28 119.333 1698.61 125.733 1703.15 134C1707.68 142.133 1709.95 151.533 1709.95 162.2ZM1686.15 155C1686.01 146.6 1683.01 139.867 1677.15 134.8C1671.28 129.733 1664.01 127.2 1655.35 127.2C1647.48 127.2 1640.75 129.733 1635.15 134.8C1629.55 139.733 1626.21 146.467 1625.15 155H1686.15ZM1772.38 221.8C1763.72 221.8 1755.92 220.267 1748.98 217.2C1742.18 214 1736.78 209.733 1732.78 204.4C1728.78 198.933 1726.65 192.867 1726.38 186.2H1749.98C1750.38 190.867 1752.58 194.8 1756.58 198C1760.72 201.067 1765.85 202.6 1771.98 202.6C1778.38 202.6 1783.32 201.4 1786.78 199C1790.38 196.467 1792.18 193.267 1792.18 189.4C1792.18 185.267 1790.18 182.2 1786.18 180.2C1782.32 178.2 1776.12 176 1767.58 173.6C1759.32 171.333 1752.58 169.133 1747.38 167C1742.18 164.867 1737.65 161.6 1733.78 157.2C1730.05 152.8 1728.18 147 1728.18 139.8C1728.18 133.933 1729.92 128.6 1733.38 123.8C1736.85 118.867 1741.78 115 1748.18 112.2C1754.72 109.4 1762.18 108 1770.58 108C1783.12 108 1793.18 111.2 1800.78 117.6C1808.52 123.867 1812.65 132.467 1813.18 143.4H1790.38C1789.98 138.467 1787.98 134.533 1784.38 131.6C1780.78 128.667 1775.92 127.2 1769.78 127.2C1763.78 127.2 1759.18 128.333 1755.98 130.6C1752.78 132.867 1751.18 135.867 1751.18 139.6C1751.18 142.533 1752.25 145 1754.38 147C1756.52 149 1759.12 150.6 1762.18 151.8C1765.25 152.867 1769.78 154.267 1775.78 156C1783.78 158.133 1790.32 160.333 1795.38 162.6C1800.58 164.733 1805.05 167.933 1808.78 172.2C1812.52 176.467 1814.45 182.133 1814.58 189.2C1814.58 195.467 1812.85 201.067 1809.38 206C1805.92 210.933 1800.98 214.8 1794.58 217.6C1788.32 220.4 1780.92 221.8 1772.38 221.8ZM1865.82 128.4V189.4C1865.82 193.533 1866.75 196.533 1868.62 198.4C1870.62 200.133 1873.95 201 1878.62 201H1892.62V220H1874.62C1864.35 220 1856.49 217.6 1851.02 212.8C1845.55 208 1842.82 200.2 1842.82 189.4V128.4H1829.82V109.8H1842.82V82.4H1865.82V109.8H1892.62V128.4H1865.82Z" fill="black"/>
</svg>
